PathFileType	4	(X/Y/Z)	C:/Users/beibeiliu/ov580/test_trc/User3\out3_training_dense_right.trc
DataRate	CameraRate	NumFrames	NumMarkers	Units	OrigDataRate	OrigDataStartFrame	OrigNumFrames
120	120	14	19	mm	120	438	500
Frame#	Time	ThumbCMC			ThumbMCP			ThumbIP			ThumbTip			IndexMCP			IndexPIP			IndexTip			MiddleMCP			MiddlePIP			MiddleTip			RingMCP			RingPIP			RingTip			PinkyMCP			PinkyPIP			PinkyTip			BackHand1			BackHand2			BackHand3	
		X0	Y0	Z0	X1	Y1	Z1	X2	Y2	Z2	X3	Y3	Z3	X4	Y4	Z4	X5	Y5	Z5	X6	Y6	Z6	X7	Y7	Z7	X8	Y8	Z8	X9	Y9	Z9	X10	Y10	Z10	X11	Y11	Z11	X12	Y12	Z12	X13	Y13	Z13	X14	Y14	Z14	X15	Y15	Z15	X16	Y16	Z16	X17	Y17	Z17	X18	Y18	Z18	
437	3.64167	144.924	78.9603	61.6502	119.357	84.7882	39.3505	100.948	89.6595	18.2113	83.5686	86.4367	-2.75051	157.194	71.9101	-11.8116	138.698	83.0279	-37.7623	115.337	87.02	-45.9755	166.384	45.7017	-17.4767	158.498	52.6191	-50.3475	137.572	56.6986	-74.5976	153.687	24.7294	-14.4065	140.405	23.4942	-35.984	113.487	29.1006	-49.7511	135.752	4.5721	2.68613	118.101	6.56956	-14.362	91.682	22.8864	-20.4998	166.67	21.4896	37.2943	170.083	18.8068	68.4837	175.607	51.4477	53.2574	
438	3.65	147.691	76.0105	62.3937	121.973	86.1415	40.7859	102.161	91.2313	16.2734	87.5139	81.3618	-0.546669	161.01	73.186	-14.1446	144.133	80.4111	-37.3071	116.517	91.4562	-48.2846	164.498	43.2274	-17.1568	158.796	49.8282	-48.0042	135.132	57.3543	-74.0719	150.366	23.4716	-11.2559	130.374	27.1847	-37.7441	105.679	37.5009	-42.1679	131.044	8.44082	2.31083	107.146	13.8384	-11.517	86.135	31.4575	-6.82957	166.279	20.9673	35.8847	168.491	15.6665	66.3287	175.777	50.516	53.0166	
439	3.65833	148.977	77.398	62.6428	123.756	85.138	38.397	103.262	90.0654	15.9382	86.8949	83.4688	-0.852164	163.027	69.9634	-12.9266	149.489	82.9309	-39.3727	124.297	86.447	-51.3283	164.528	40.8413	-17.4477	158.996	49.574	-47.8769	130.651	53.416	-72.3094	145.559	23.1073	-14.0281	126.913	30.7819	-35.0226	92.9815	41.2018	-32.4697	128.329	12.9606	1.81897	100.952	19.8251	-7.34764	83.7967	40.641	3.49268	166.303	19.2275	39.1973	168.939	13.9622	70.7646	177.025	52.2386	51.2731	
440	3.66667	151.532	77.748	64.8779	127.015	87.5037	43.4483	105.731	91.8314	19.2245	88.4854	84.5348	0.991515	167.446	69.3076	-11.5021	158.746	79.4472	-38.1059	132.221	86.0849	-55.5133	165.559	40.4582	-18.2782	158.304	46.8565	-46.3024	128.072	53.474	-71.6494	142.642	26.1726	-13.2808	120.959	30.4043	-30.4372	90.3499	48.2738	-22.6525	122.945	12.9907	1.45913	98.2324	25.1993	-2.77476	86.9689	41.6002	8.04266	164.787	17.6102	37.7287	169.073	11.2904	67.5291	178.071	46.1683	51.2888	
441	3.675	153.982	73.217	60.7076	130.33	86.1975	38.7479	109.22	94.3806	17.2679	92.1635	87.4419	1.4688	170.479	63.3802	-10.3325	163.649	72.2397	-37.9521	146.071	84.7926	-57.7239	165.084	40.1142	-20.0774	152.894	41.9439	-47.8061	129.447	56.8483	-68.6568	137.671	24.5532	-12.4106	112.224	33.3789	-27.8446	89.5004	48.785	-17.6203	119.148	12.4849	2.76389	98.0393	26.1001	-1.43346	83.6141	46.1783	13.0647	164.674	15.2034	37.0906	169.074	11.9478	65.7557	180.112	43.1527	53.1815	
442	3.68333	158.046	71.3224	63.9437	135.272	88.5491	41.0644	115.661	95.79	21.6875	95.4982	96.2725	2.75201	172.644	61.3967	-14.43	167.624	69.9185	-40.5211	154.478	79.8644	-62.5357	162.319	36.927	-18.2219	151.273	45.0598	-47.8934	126.515	56.4596	-66.3688	136.502	25.4035	-8.59421	111.889	37.0837	-24.5035	88.6771	54.2485	-14.3685	119.638	13.1368	6.24257	97.3282	26.5853	-0.248948	80.3616	45.3859	10.2381	164.177	12.7911	39.6597	165.42	8.16206	70.343	177.943	38.0886	50.799	
443	3.69167	162.584	71.2718	60.2428	141.085	87.0357	39.7686	123.009	99.5746	21.1129	103.333	100.348	3.22385	173.15	54.6875	-8.76252	171.31	61.6798	-39.4537	162.932	76.827	-62.806	159.22	35.166	-18.8153	142.844	43.164	-47.057	118.742	56.8978	-60.6671	131.168	23.5162	-7.62331	107.484	37.7453	-22.2557	87.798	57.8672	-13.8525	115.296	10.0846	6.21649	98.1756	26.2369	-2.04943	81.0505	46.8074	5.70874	160.269	7.03147	40.899	165.267	3.25789	67.377	179.298	32.5474	51.7159	
444	3.7	169.441	68.7329	63.187	148.048	85.2038	41.8645	131.844	98.7415	23.8861	114.518	102.4	8.49256	173.66	48.2243	-13.5865	176.237	59.4798	-40.2389	169.649	71.5701	-62.3079	153.268	32.8269	-19.9476	136.599	45.5086	-44.5637	110.977	66.7907	-54.1237	128.024	22.0383	-8.39888	108.331	35.0712	-20.0607	84.4742	60.2105	-11.4377	115.684	6.86267	12.6774	94.9127	21.266	-2.77638	78.039	42.6595	-1.67804	160.436	5.61756	37.3356	165.285	2.61924	71.1891	180.969	28.139	52.8757	
445	3.70833	174.991	63.9249	64.7578	157.109	84.7873	42.1032	141.039	97.323	20.6749	125.447	105.404	7.56882	176.843	44.771	-12.4177	180.022	55.4312	-34.3032	174.87	64.2322	-59.0429	150.112	33.246	-18.9646	134.149	48.6067	-39.1675	104.872	70.8708	-41.75	131.351	23.3071	-6.40766	108.739	33.1994	-19.2301	91.0464	57.5493	-18.7866	116.208	5.94488	11.7553	97.0903	15.714	-5.11433	78.5285	31.8754	-11.7609	157.521	2.01585	42.2089	161.572	-2.68379	68.8948	182.78	22.3108	55.422	
446	3.71667	176.875	55.5265	63.1145	166.341	82.1569	45.9913	152.08	98.7503	20.5903	136.309	101.617	8.00825	178.283	41.4934	-8.02026	178.28	50.1174	-38.9959	176.177	60.8186	-57.6263	148.168	32.304	-18.0746	133.461	50.0474	-34.3589	108.327	79.1	-31.8771	131.106	21.3347	-7.00566	113.517	31.797	-21.0219	94.5785	55.9879	-22.1427	113.582	4.0922	12.3139	96.6351	10.5085	-3.53797	78.4261	21.5316	-18.2453	156.917	-0.706443	44.5244	161.699	-6.19265	70.6619	184.752	19.1246	55.5518	
447	3.725	183.45	53.0603	68.215	172.137	76.2896	41.6927	162.601	91.7415	20.5857	147.045	101.741	2.75375	181.344	38.8664	-7.98055	181.475	47.9859	-34.0759	175.494	59.2572	-57.9392	148.835	28.8806	-12.2231	134.159	52.2331	-30.6565	111.84	82.8041	-24.9093	136.256	17.7277	-3.53693	119.662	33.1468	-23.3166	99.3834	60.1314	-27.3057	116.113	4.87226	15.054	97.4087	8.17355	-3.01565	83.3047	13.1678	-18.3326	154.398	-3.91833	39.8795	158.306	-7.71575	70.2798	181.897	13.4609	54.8352	
448	3.73333	184.676	44.2392	67.4537	183.484	71.8386	46.4964	172.934	86.8038	24.3481	160.175	99.0788	2.00407	183.068	35.643	-7.47569	178.322	47.9172	-37.3606	172.667	60.9925	-55.0954	150.085	28.7594	-12.6279	137.756	54.7193	-28.9263	116.313	85.1846	-18.8403	135.891	16.1092	-6.92259	118.867	32.5377	-25.6186	104.359	57.3927	-31.4966	115.869	3.72749	15.8542	102.683	7.52485	-3.49456	88.1298	10.8042	-18.9643	157.116	-6.32696	43.1056	157.993	-11.2259	74.5389	186.485	9.17533	54.1954	
449	3.74167	188.875	38.2117	67.8527	188.396	62.994	50.0811	188.085	83.6119	27.1376	177.766	95.576	8.95534	182.903	33.2083	-6.06349	182.761	49.2607	-31.9185	173.715	65.3565	-50.2604	157.942	31.058	-10.4331	141.984	57.1706	-25.6726	127.06	89.6694	-14.1096	137.029	13.8582	-5.14852	127.148	31.6736	-27.0148	112.459	52.7865	-32.9926	117.719	3.78237	17.2839	105.424	6.46084	0.113753	92.9414	10.8486	-17.2656	155.448	-8.0982	44.5293	154.356	-14.1678	71.3419	185.629	3.68388	58.4729	
450	3.75	194.567	34.8488	72.3232	197.488	58.5262	49.7015	195.673	75.8805	26.6208	191.873	91.7642	10.4731	188.199	34.792	-7.22612	182.981	47.6328	-26.7843	179.022	72.9679	-47.1584	159.153	28.7639	-8.31225	149.254	55.8485	-24.5841	133.086	87.2596	-14.5323	144.68	14.7426	-1.36942	131.295	31.0276	-26.069	122.284	54.9385	-37.0249	120.554	4.85157	15.6851	106.939	8.94577	-1.84203	89.8591	13.233	-19.7023	154.552	-8.44714	44.4783	155.613	-16.9951	75.5909	185.408	-0.747881	60.041	
